<svg width="578" height="586" viewBox="0 0 578 586" fill="none" xmlns="http://www.w3.org/2000/svg">
<path d="M502 350.2C492.7 356.6 480.6 357.4 470.5 352.3C458.9 345.7 452.6 330.3 452.6 309.4V245.1C452.6 214.2 440.4 192.3 419.9 186.3C385.4 176.2 359.6 218.5 349.7 234.4L288.6 333.3V212.6C287.9 184.8 278.9 168.1 261.7 163.1C250.4 159.8 233.4 161.1 216.9 186.3L80.3 405.6C62.1 370.9 52.6 332.2 52.8 293C52.8 160.8 158.4 53.3 288.6 53.3C418.8 53.3 524.7 160.8 524.7 293V293.7C524.7 293.7 524.7 294.2 524.7 294.4C526 319.9 517.7 340.3 502 350.2ZM577.5 293V291.7C576.4 130.7 447.2 0 288.6 0C130 0 0 131.4 0 293C0 454.6 129.4 586 288.6 586C361.6 586 431.8 558 484.8 507.8C495.5 497.7 496.1 480.9 486.2 470.1C476.6 459.5 460.3 458.7 449.6 468.3L449.5 468.4C356 557.1 208.3 553.2 119.6 459.7C117.4 457.4 115.3 455.1 113.2 452.7L236.1 255V346.2C236.1 390 253.1 404.2 267.3 408.4C281.5 412.6 303.4 409.7 326.2 372.6L394.2 262.6C396.3 259.1 398.3 256 400.2 253.4V309.3C400.2 350.3 416.6 383 445.5 399.2C472.2 413.6 504.6 412.3 530.1 395.8C561.8 375.2 579.1 337.9 577.3 293H577.5Z" fill="white"/>
</svg>
